<svg width="161" height="27" viewBox="0 0 161 27" fill="none" xmlns="http://www.w3.org/2000/svg">
<path d="M68.0238 20H65.1638L64.0638 16.78H59.0038L57.9038 20H55.0838L59.9038 6.8H63.2038L68.0238 20ZM59.6238 14.74H63.4438L61.5238 8.98L59.6238 14.74ZM73.9878 9.8C74.8811 9.8 75.6345 9.93333 76.2478 10.2C76.8745 10.4533 77.3745 10.8067 77.7478 11.26C78.1345 11.7 78.4078 12.1933 78.5678 12.74L76.0078 13.66C75.8745 13.06 75.6478 12.6067 75.3278 12.3C75.0078 11.9933 74.5745 11.84 74.0278 11.84C73.5211 11.84 73.0878 11.96 72.7278 12.2C72.3678 12.4267 72.0945 12.78 71.9078 13.26C71.7211 13.7267 71.6278 14.3133 71.6278 15.02C71.6278 15.7267 71.7211 16.3133 71.9078 16.78C72.1078 17.2467 72.3878 17.5933 72.7478 17.82C73.1211 18.0467 73.5545 18.16 74.0478 18.16C74.4478 18.16 74.7878 18.0933 75.0678 17.96C75.3478 17.8133 75.5745 17.6067 75.7478 17.34C75.9345 17.0733 76.0611 16.7533 76.1278 16.38L78.6078 17.18C78.4611 17.78 78.1878 18.3067 77.7878 18.76C77.3878 19.2133 76.8745 19.5667 76.2478 19.82C75.6211 20.0733 74.8945 20.2 74.0678 20.2C73.0411 20.2 72.1345 19.9933 71.3478 19.58C70.5611 19.1667 69.9545 18.5733 69.5278 17.8C69.1011 17.0267 68.8878 16.0933 68.8878 15C68.8878 13.9067 69.1011 12.9733 69.5278 12.2C69.9545 11.4267 70.5545 10.8333 71.3278 10.42C72.1011 10.0067 72.9878 9.8 73.9878 9.8ZM85.3769 20.2C84.3235 20.2 83.4035 19.9933 82.6169 19.58C81.8435 19.1667 81.2435 18.5733 80.8169 17.8C80.3902 17.0267 80.1769 16.0933 80.1769 15C80.1769 13.9067 80.3902 12.9733 80.8169 12.2C81.2435 11.4267 81.8369 10.8333 82.5969 10.42C83.3702 10.0067 84.2502 9.8 85.2369 9.8C86.2502 9.8 87.1102 10.0067 87.8169 10.42C88.5235 10.82 89.0635 11.3733 89.4369 12.08C89.8102 12.7733 89.9969 13.5667 89.9969 14.46C89.9969 14.7267 89.9902 14.98 89.9769 15.22C89.9635 15.46 89.9435 15.6733 89.9169 15.86H81.9369V13.96H88.7169L87.3969 14.44C87.3969 13.6 87.2035 12.9533 86.8169 12.5C86.4435 12.0467 85.9102 11.82 85.2169 11.82C84.7102 11.82 84.2702 11.94 83.8969 12.18C83.5369 12.42 83.2635 12.78 83.0769 13.26C82.8902 13.7267 82.7969 14.32 82.7969 15.04C82.7969 15.7467 82.8969 16.3333 83.0969 16.8C83.3102 17.2533 83.6035 17.5933 83.9769 17.82C84.3635 18.0467 84.8235 18.16 85.3569 18.16C85.9435 18.16 86.4169 18.0467 86.7769 17.82C87.1369 17.5933 87.4169 17.28 87.6169 16.88L89.7969 17.72C89.5835 18.24 89.2569 18.6867 88.8169 19.06C88.3902 19.4333 87.8769 19.72 87.2769 19.92C86.6902 20.1067 86.0569 20.2 85.3769 20.2ZM104.132 20.2C102.919 20.2 101.852 19.9333 100.932 19.4C100.026 18.8667 99.3189 18.0933 98.8122 17.08C98.3055 16.0667 98.0522 14.8467 98.0522 13.42C98.0522 12.0067 98.3189 10.7933 98.8522 9.78C99.3855 8.75333 100.139 7.96667 101.112 7.42C102.099 6.87333 103.239 6.6 104.532 6.6C105.959 6.6 107.112 6.86667 107.992 7.4C108.872 7.92 109.572 8.73333 110.092 9.84L107.532 10.94C107.319 10.2333 106.952 9.71333 106.432 9.38C105.926 9.03333 105.299 8.86 104.552 8.86C103.806 8.86 103.159 9.04 102.612 9.4C102.066 9.74667 101.646 10.26 101.352 10.94C101.059 11.6067 100.912 12.4267 100.912 13.4C100.912 14.4 101.052 15.2467 101.332 15.94C101.612 16.62 102.026 17.1333 102.572 17.48C103.132 17.8133 103.819 17.98 104.632 17.98C105.072 17.98 105.479 17.9267 105.852 17.82C106.239 17.7133 106.572 17.5533 106.852 17.34C107.132 17.1267 107.352 16.8533 107.512 16.52C107.672 16.1867 107.752 15.8 107.752 15.36V15.06H104.292V13.04H110.132V20H108.192L107.992 17.12L108.472 17.46C108.179 18.34 107.659 19.02 106.912 19.5C106.179 19.9667 105.252 20.2 104.132 20.2ZM115.585 5.62V16.92C115.585 17.3867 115.665 17.7133 115.825 17.9C115.985 18.0867 116.252 18.18 116.625 18.18C116.852 18.18 117.039 18.1667 117.185 18.14C117.332 18.1 117.519 18.0467 117.745 17.98L117.505 19.78C117.279 19.9133 116.992 20.0133 116.645 20.08C116.312 20.16 115.979 20.2 115.645 20.2C114.672 20.2 113.959 19.9667 113.505 19.5C113.065 19.02 112.845 18.26 112.845 17.22V5.62H115.585ZM123.832 9.8C124.845 9.8 125.732 10.0067 126.492 10.42C127.265 10.8333 127.865 11.4267 128.292 12.2C128.732 12.9733 128.952 13.9067 128.952 15C128.952 16.08 128.732 17.0133 128.292 17.8C127.865 18.5733 127.265 19.1667 126.492 19.58C125.732 19.9933 124.845 20.2 123.832 20.2C122.832 20.2 121.945 19.9933 121.172 19.58C120.399 19.1667 119.792 18.5733 119.352 17.8C118.925 17.0133 118.712 16.08 118.712 15C118.712 13.9067 118.925 12.9733 119.352 12.2C119.792 11.4267 120.399 10.8333 121.172 10.42C121.945 10.0067 122.832 9.8 123.832 9.8ZM123.832 11.84C123.325 11.84 122.892 11.96 122.532 12.2C122.185 12.4267 121.919 12.7733 121.732 13.24C121.545 13.7067 121.452 14.2933 121.452 15C121.452 15.7067 121.545 16.2933 121.732 16.76C121.919 17.2267 122.185 17.58 122.532 17.82C122.892 18.0467 123.325 18.16 123.832 18.16C124.325 18.16 124.745 18.0467 125.092 17.82C125.452 17.58 125.725 17.2267 125.912 16.76C126.099 16.2933 126.192 15.7067 126.192 15C126.192 14.2933 126.099 13.7067 125.912 13.24C125.725 12.7733 125.452 12.4267 125.092 12.2C124.745 11.96 124.325 11.84 123.832 11.84ZM137.125 20.2C136.511 20.2 135.951 20.0733 135.445 19.82C134.951 19.5533 134.538 19.1933 134.205 18.74C133.885 18.2733 133.665 17.7533 133.545 17.18L133.825 16.82L133.665 20H131.245V5.62H133.985V12.82L133.725 12.4C133.938 11.6533 134.345 11.0333 134.945 10.54C135.545 10.0467 136.298 9.8 137.205 9.8C137.991 9.8 138.705 10.0067 139.345 10.42C139.985 10.8333 140.485 11.4267 140.845 12.2C141.218 12.9733 141.405 13.9133 141.405 15.02C141.405 16.1 141.218 17.0267 140.845 17.8C140.485 18.5733 139.978 19.1667 139.325 19.58C138.685 19.9933 137.951 20.2 137.125 20.2ZM136.305 18.1C137.038 18.1 137.611 17.84 138.025 17.32C138.451 16.7867 138.665 16.0133 138.665 15C138.665 13.9867 138.458 13.22 138.045 12.7C137.631 12.1667 137.058 11.9 136.325 11.9C135.845 11.9 135.431 12.0267 135.085 12.28C134.738 12.5333 134.465 12.8933 134.265 13.36C134.078 13.8267 133.985 14.38 133.985 15.02C133.985 15.6733 134.078 16.2333 134.265 16.7C134.465 17.1533 134.738 17.5 135.085 17.74C135.445 17.98 135.851 18.1 136.305 18.1ZM149.425 13.62C149.425 13.0467 149.258 12.6 148.925 12.28C148.605 11.96 148.178 11.8 147.645 11.8C147.152 11.8 146.718 11.9267 146.345 12.18C145.972 12.4333 145.698 12.8533 145.525 13.44L143.185 12.72C143.412 11.84 143.905 11.1333 144.665 10.6C145.438 10.0667 146.472 9.8 147.765 9.8C148.645 9.8 149.412 9.94 150.065 10.22C150.718 10.4867 151.225 10.8933 151.585 11.44C151.958 11.9867 152.145 12.6733 152.145 13.5V17.56C152.145 18.0667 152.385 18.32 152.865 18.32C153.092 18.32 153.305 18.2867 153.505 18.22L153.345 19.92C152.998 20.0933 152.565 20.18 152.045 20.18C151.578 20.18 151.158 20.1 150.785 19.94C150.412 19.78 150.118 19.54 149.905 19.22C149.692 18.8867 149.585 18.4733 149.585 17.98V17.9L150.065 17.82C149.985 18.3267 149.765 18.76 149.405 19.12C149.045 19.4667 148.605 19.7333 148.085 19.92C147.578 20.1067 147.052 20.2 146.505 20.2C145.825 20.2 145.238 20.1 144.745 19.9C144.252 19.6867 143.872 19.38 143.605 18.98C143.338 18.58 143.205 18.0867 143.205 17.5C143.205 16.7533 143.445 16.1467 143.925 15.68C144.405 15.2 145.092 14.8733 145.985 14.7L149.745 13.94L149.725 15.64L147.325 16.12C146.872 16.2133 146.525 16.34 146.285 16.5C146.058 16.6467 145.945 16.8933 145.945 17.24C145.945 17.5733 146.065 17.8267 146.305 18C146.558 18.1733 146.858 18.26 147.205 18.26C147.485 18.26 147.758 18.2267 148.025 18.16C148.292 18.0933 148.532 17.9867 148.745 17.84C148.958 17.6933 149.125 17.4933 149.245 17.24C149.365 16.9867 149.425 16.68 149.425 16.32V13.62ZM157.91 5.62V16.92C157.91 17.3867 157.99 17.7133 158.15 17.9C158.31 18.0867 158.576 18.18 158.95 18.18C159.176 18.18 159.363 18.1667 159.51 18.14C159.656 18.1 159.843 18.0467 160.07 17.98L159.83 19.78C159.603 19.9133 159.316 20.0133 158.97 20.08C158.636 20.16 158.303 20.2 157.97 20.2C156.996 20.2 156.283 19.9667 155.83 19.5C155.39 19.02 155.17 18.26 155.17 17.22V5.62H157.91Z" fill="#290A38"/>
<path d="M2 26L12.4527 4.8375H13.05H13.3984C13.3984 4.8375 17.7158 15.4321 23.5524 22.121C26.9371 26 33.7562 25.7933 37.6386 22.121C41.521 18.4488 40.9735 14.314 40.9735 14.314H28.8285M22.0592 9.11963C22.0592 9.11963 24.5977 2 30.4213 2C36.2449 2 40.426 7.10648 40.426 9.11963" stroke="#290A38" stroke-width="4"/>
</svg>
