<svg width="30" height="30" viewBox="0 0 30 30" fill="none" xmlns="http://www.w3.org/2000/svg">
<circle cx="15" cy="15" r="15" fill="white" fill-opacity="0.25"/>
<path d="M20.3062 17.4125C19.5375 17.4125 18.7937 17.2875 18.1 17.0625C17.9913 17.0256 17.8744 17.0202 17.7628 17.0467C17.6511 17.0732 17.5492 17.1307 17.4687 17.2125L16.4875 18.4437C14.7187 17.6 13.0625 16.0062 12.1812 14.175L13.4 13.1375C13.5687 12.9625 13.6187 12.7187 13.55 12.5C13.3187 11.8062 13.2 11.0625 13.2 10.2937C13.2 9.95624 12.9187 9.67499 12.5812 9.67499H10.4187C10.0812 9.67499 9.67499 9.82499 9.67499 10.2937C9.67499 16.1 14.5062 20.925 20.3062 20.925C20.75 20.925 20.925 20.5312 20.925 20.1875V18.0312C20.925 17.6937 20.6437 17.4125 20.3062 17.4125Z" fill="white"/>
</svg>
