<svg width="30" height="30" viewBox="0 0 30 30" fill="none" xmlns="http://www.w3.org/2000/svg">
<circle cx="15" cy="15" r="15" fill="white" fill-opacity="0.25"/>
<path d="M10.95 10.0125C10.4527 10.0125 9.97582 10.2101 9.62419 10.5617C9.27256 10.9133 9.07501 11.3902 9.07501 11.8875V12.076L14.7 15.105L20.325 12.0769V11.8875C20.325 11.3902 20.1275 10.9133 19.7758 10.5617C19.4242 10.2101 18.9473 10.0125 18.45 10.0125H10.95ZM20.325 13.141L14.9222 16.05C14.8539 16.0868 14.7776 16.106 14.7 16.106C14.6225 16.106 14.5461 16.0868 14.4778 16.05L9.07501 13.141V17.5125C9.07501 18.0098 9.27256 18.4867 9.62419 18.8383C9.97582 19.19 10.4527 19.3875 10.95 19.3875H18.45C18.9473 19.3875 19.4242 19.19 19.7758 18.8383C20.1275 18.4867 20.325 18.0098 20.325 17.5125V13.141Z" fill="white"/>
</svg>
