<svg width="30" height="30" viewBox="0 0 30 30" fill="none" xmlns="http://www.w3.org/2000/svg">
<circle cx="15" cy="15" r="15" fill="white" fill-opacity="0.25"/>
<path d="M11.5375 10.325C11.5373 10.6565 11.4055 10.9744 11.1709 11.2087C10.9364 11.443 10.6184 11.5746 10.2869 11.5744C9.95533 11.5742 9.63745 11.4424 9.40315 11.2078C9.16885 10.9733 9.03731 10.6553 9.03748 10.3238C9.03764 9.99226 9.1695 9.67438 9.40403 9.44008C9.63857 9.20577 9.95658 9.07424 10.2881 9.0744C10.6196 9.07457 10.9375 9.20642 11.1718 9.44096C11.4061 9.6755 11.5376 9.99351 11.5375 10.325ZM11.575 12.5H9.07498V20.325H11.575V12.5ZM15.525 12.5H13.0375V20.325H15.5V16.2188C15.5 13.9313 18.4812 13.7188 18.4812 16.2188V20.325H20.95V15.3688C20.95 11.5125 16.5375 11.6563 15.5 13.55L15.525 12.5Z" fill="white"/>
</svg>
