<svg width="85" height="85" viewBox="0 0 85 85" fill="none" xmlns="http://www.w3.org/2000/svg">
<path d="M66.9375 56.0466C67.6471 56.4245 67.919 57.3081 67.5075 57.9987C64.2083 63.5353 59.22 67.8867 53.2576 70.3996C47.2952 72.9125 40.6971 73.4443 34.4302 71.9394C33.6486 71.7517 33.2059 70.94 33.431 70.1683V70.1683C33.656 69.3965 34.4635 68.9574 35.2461 69.1411C40.8697 70.4612 46.7811 69.9701 52.127 67.717C57.4729 65.4639 61.9525 61.5756 64.9348 56.6286C65.3498 55.9401 66.228 55.6688 66.9375 56.0466V56.0466Z" fill="#221654"/>
<path d="M27.5171 67.7018C27.1271 68.4047 26.239 68.6614 25.5556 68.2381C21.919 65.9853 18.796 62.9842 16.398 59.4284C13.9999 55.8726 12.3879 51.8526 11.6621 47.6367C11.5257 46.8445 12.0965 46.1172 12.8944 46.0191V46.0191C13.6923 45.9209 14.4147 46.4892 14.5551 47.2807C15.2222 51.0409 16.6702 54.6256 18.8115 57.8007C20.9528 60.9759 23.7336 63.6617 26.9698 65.6893C27.6511 66.1161 27.9071 66.9988 27.5171 67.7018V67.7018Z" fill="#221654"/>
<path d="M20.5188 15.0554C19.9336 14.2899 20.0776 13.191 20.8703 12.6433C26.6753 8.63212 33.536 6.39277 40.6151 6.22002C47.6942 6.04728 54.6559 7.94933 60.6497 11.6726C61.4682 12.181 61.6656 13.2715 61.1184 14.0647V14.0647C60.5712 14.8578 59.4868 15.0528 58.6657 14.5486C53.2806 11.2415 47.0425 9.55366 40.7002 9.70843C34.3579 9.8632 28.2095 11.8532 22.9922 15.4191C22.1966 15.9628 21.1041 15.8209 20.5188 15.0554V15.0554Z" fill="#2C2C2C"/>
<path d="M62.0438 70.2747C62.6168 71.0494 62.4554 72.1458 61.6541 72.6809C55.7861 76.5994 48.8908 78.7296 41.8098 78.79C34.7289 78.8504 27.7982 76.8381 21.8643 73.0202C21.054 72.4988 20.874 71.4053 21.4337 70.621V70.621C21.9934 69.8366 23.0807 69.6588 23.8937 70.1761C29.2256 73.5682 35.4361 75.3548 41.7801 75.3007C48.1241 75.2466 54.3032 73.3544 59.5765 69.8718C60.3806 69.3408 61.4708 69.5 62.0438 70.2747V70.2747Z" fill="#2C2C2C"/>
<path d="M16.9317 66.7866C16.2464 67.464 15.1382 67.4603 14.4945 66.7433C8.63984 60.2218 5.32899 51.7828 5.21254 42.9804C5.09608 34.1779 8.18251 25.6542 13.8626 18.9802C14.4871 18.2464 15.5948 18.2134 16.2978 18.8724V18.8724C17.0007 19.5315 17.0323 20.6328 16.4116 21.3698C11.3468 27.3829 8.59716 35.0343 8.70168 42.9342C8.80619 50.8341 11.7573 58.4101 16.9794 64.2871C17.6194 65.0074 17.617 66.1092 16.9317 66.7866V66.7866Z" fill="#2C2C2C"/>
<path d="M13.3007 36.5455C12.5141 36.3794 12.0077 35.6059 12.2114 34.8283C13.2249 30.9591 14.9964 27.3242 17.4283 24.1365C20.1548 20.5627 23.6429 17.6408 27.6393 15.583C31.6358 13.5252 36.0404 12.3831 40.5332 12.2397C44.5405 12.1118 48.5284 12.7812 52.2666 14.2037C53.0179 14.4895 53.3533 15.351 53.0316 16.0878V16.0878C52.71 16.8245 51.8532 17.157 51.1004 16.875C47.7595 15.6232 44.2013 15.0352 40.6261 15.1493C36.5652 15.2789 32.5842 16.3112 28.972 18.1711C25.3598 20.0311 22.2071 22.672 19.7427 25.9022C17.5731 28.7462 15.9849 31.9841 15.0633 35.4307C14.8556 36.2073 14.0872 36.7115 13.3007 36.5455V36.5455Z" fill="#221654"/>
<path d="M25 51.8493L34.3872 32.5832H34.9236H35.2365C35.2365 32.5832 39.1139 42.2284 44.3555 48.318C47.3952 51.8493 53.5192 51.6611 57.0059 48.318C60.4925 44.9748 60.0008 41.2105 60.0008 41.2105H49.0938M43.0145 36.4816C43.0145 36.4816 45.2942 30 50.5242 30C55.7542 30 59.5091 34.6489 59.5091 36.4816" stroke="#221654" stroke-width="3"/>
</svg>
