<svg width="30" height="30" viewBox="0 0 30 30" fill="none" xmlns="http://www.w3.org/2000/svg">
<circle cx="15" cy="15" r="15" fill="white" fill-opacity="0.25"/>
<path d="M21.0826 10.7347C20.6056 10.9457 20.0999 11.0843 19.582 11.146C20.1276 10.8192 20.5359 10.3052 20.7307 9.69972C20.2182 10.0047 19.6563 10.2185 19.0713 10.3341C18.678 9.91321 18.1566 9.63407 17.5882 9.54009C17.0198 9.4461 16.4363 9.54253 15.9284 9.81438C15.4205 10.0862 15.0166 10.5183 14.7795 11.0433C14.5425 11.5684 14.4856 12.1571 14.6176 12.7178C13.5782 12.6658 12.5613 12.3958 11.6331 11.9253C10.7048 11.4547 9.88586 10.7942 9.22947 9.9866C8.99715 10.3856 8.87506 10.8392 8.87572 11.301C8.87572 12.2072 9.33759 13.0078 10.0382 13.4766C9.62322 13.4635 9.21737 13.3514 8.85447 13.1497V13.1816C8.85445 13.7853 9.06324 14.3704 9.44542 14.8376C9.82761 15.3049 10.3597 15.6256 10.9513 15.7453C10.5661 15.8499 10.1621 15.8652 9.77009 15.7903C9.93692 16.31 10.2621 16.7644 10.7001 17.09C11.1381 17.4156 11.6669 17.596 12.2126 17.606C11.6703 18.0319 11.0494 18.3467 10.3853 18.5325C9.7213 18.7182 9.02715 18.7712 8.34259 18.6885C9.53742 19.4568 10.9283 19.8648 12.3488 19.8635C17.1576 19.8635 19.7863 15.8803 19.7863 12.426C19.7863 12.3135 19.7838 12.1997 19.7788 12.0878C20.2903 11.7181 20.7318 11.2594 21.0826 10.7347Z" fill="white"/>
</svg>
